<mxfile host="Electron" agent="Mozilla/5.0 (Windows NT 10.0; Win64; x64) AppleWebKit/537.36 (KHTML, like Gecko) draw.io/25.0.2 Chrome/128.0.6613.186 Electron/32.2.5 Safari/537.36" version="25.0.2">
  <diagram name="Page-1" id="52a04d89-c75d-2922-d76d-85b35f80e030">
    <mxGraphModel dx="3149" dy="1220" grid="1" gridSize="10" guides="1" tooltips="1" connect="1" arrows="1" fold="1" page="1" pageScale="1" pageWidth="1100" pageHeight="850" background="none" math="0" shadow="0">
      <root>
        <mxCell id="0" />
        <mxCell id="1" parent="0" />
        <mxCell id="s0tid6UAbcxy9Dh6yLII-6" value="" style="rounded=0;whiteSpace=wrap;html=1;" vertex="1" parent="1">
          <mxGeometry x="-160" y="550" width="1620" height="180" as="geometry" />
        </mxCell>
        <mxCell id="s0tid6UAbcxy9Dh6yLII-1" value="" style="rounded=0;whiteSpace=wrap;html=1;" vertex="1" parent="1">
          <mxGeometry x="-160" y="70" width="1620" height="190" as="geometry" />
        </mxCell>
        <mxCell id="s0tid6UAbcxy9Dh6yLII-4" value="" style="rounded=0;whiteSpace=wrap;html=1;" vertex="1" parent="1">
          <mxGeometry x="-160" y="330" width="1620" height="170" as="geometry" />
        </mxCell>
        <mxCell id="s0tid6UAbcxy9Dh6yLII-2" value="&lt;font style=&quot;font-size: 25px;&quot;&gt;UI-Lay&lt;/font&gt;&lt;span style=&quot;font-size: 25px; background-color: initial;&quot;&gt;er&lt;/span&gt;" style="text;html=1;align=center;verticalAlign=middle;resizable=0;points=[];autosize=1;strokeColor=none;fillColor=none;" vertex="1" parent="1">
          <mxGeometry x="-160" y="70" width="120" height="40" as="geometry" />
        </mxCell>
        <mxCell id="s0tid6UAbcxy9Dh6yLII-17" style="edgeStyle=orthogonalEdgeStyle;rounded=0;orthogonalLoop=1;jettySize=auto;html=1;exitX=0.5;exitY=1;exitDx=0;exitDy=0;endArrow=none;endFill=0;" edge="1" parent="1" source="s0tid6UAbcxy9Dh6yLII-3" target="s0tid6UAbcxy9Dh6yLII-15">
          <mxGeometry relative="1" as="geometry" />
        </mxCell>
        <mxCell id="s0tid6UAbcxy9Dh6yLII-3" value="&lt;font style=&quot;font-size: 22px;&quot;&gt;&lt;b style=&quot;&quot;&gt;UserRegistersEvent&lt;/b&gt;&lt;/font&gt;&lt;div&gt;&lt;font style=&quot;font-size: 18px;&quot;&gt;username: str&lt;/font&gt;&lt;/div&gt;&lt;div&gt;&lt;font style=&quot;font-size: 18px;&quot;&gt;e-mail address: str&lt;/font&gt;&lt;/div&gt;&lt;div&gt;&lt;font style=&quot;font-size: 18px;&quot;&gt;password: str&lt;/font&gt;&lt;/div&gt;" style="rounded=1;whiteSpace=wrap;html=1;" vertex="1" parent="1">
          <mxGeometry x="-80" y="113.75" width="220" height="102.5" as="geometry" />
        </mxCell>
        <mxCell id="s0tid6UAbcxy9Dh6yLII-5" value="&lt;span style=&quot;font-size: 25px;&quot;&gt;Domain Layer&lt;/span&gt;" style="text;html=1;align=center;verticalAlign=middle;resizable=0;points=[];autosize=1;strokeColor=none;fillColor=none;" vertex="1" parent="1">
          <mxGeometry x="-160" y="330" width="180" height="40" as="geometry" />
        </mxCell>
        <mxCell id="s0tid6UAbcxy9Dh6yLII-7" value="&lt;span style=&quot;font-size: 25px;&quot;&gt;Infrastructure Layer&lt;/span&gt;" style="text;html=1;align=center;verticalAlign=middle;resizable=0;points=[];autosize=1;strokeColor=none;fillColor=none;" vertex="1" parent="1">
          <mxGeometry x="-160" y="550" width="240" height="40" as="geometry" />
        </mxCell>
        <mxCell id="s0tid6UAbcxy9Dh6yLII-21" style="edgeStyle=orthogonalEdgeStyle;rounded=0;orthogonalLoop=1;jettySize=auto;html=1;exitX=0.25;exitY=1;exitDx=0;exitDy=0;endArrow=none;endFill=0;" edge="1" parent="1" source="s0tid6UAbcxy9Dh6yLII-14" target="s0tid6UAbcxy9Dh6yLII-19">
          <mxGeometry relative="1" as="geometry" />
        </mxCell>
        <mxCell id="s0tid6UAbcxy9Dh6yLII-36" style="edgeStyle=orthogonalEdgeStyle;rounded=0;orthogonalLoop=1;jettySize=auto;html=1;exitX=0.75;exitY=1;exitDx=0;exitDy=0;entryX=0.25;entryY=0;entryDx=0;entryDy=0;endArrow=none;endFill=0;" edge="1" parent="1" source="s0tid6UAbcxy9Dh6yLII-14" target="s0tid6UAbcxy9Dh6yLII-30">
          <mxGeometry relative="1" as="geometry" />
        </mxCell>
        <mxCell id="s0tid6UAbcxy9Dh6yLII-14" value="&lt;font style=&quot;font-size: 22px;&quot;&gt;&lt;b style=&quot;&quot;&gt;ShowMapEvent&lt;/b&gt;&lt;/font&gt;&lt;div&gt;&lt;font style=&quot;font-size: 18px;&quot;&gt;stations: List[str]&lt;/font&gt;&lt;/div&gt;&lt;div&gt;&lt;font style=&quot;font-size: 18px;&quot;&gt;geodata: dataframe&lt;/font&gt;&lt;/div&gt;" style="rounded=1;whiteSpace=wrap;html=1;" vertex="1" parent="1">
          <mxGeometry x="490" y="127.5" width="220" height="75" as="geometry" />
        </mxCell>
        <mxCell id="s0tid6UAbcxy9Dh6yLII-18" style="edgeStyle=orthogonalEdgeStyle;rounded=0;orthogonalLoop=1;jettySize=auto;html=1;exitX=0.5;exitY=1;exitDx=0;exitDy=0;endArrow=none;endFill=0;" edge="1" parent="1" source="s0tid6UAbcxy9Dh6yLII-15" target="s0tid6UAbcxy9Dh6yLII-16">
          <mxGeometry relative="1" as="geometry" />
        </mxCell>
        <mxCell id="s0tid6UAbcxy9Dh6yLII-15" value="&lt;font style=&quot;font-size: 22px;&quot;&gt;&lt;b style=&quot;&quot;&gt;AddUserService&lt;/b&gt;&lt;/font&gt;&lt;div&gt;&lt;span style=&quot;font-size: 18px;&quot;&gt;add_user()&lt;/span&gt;&lt;/div&gt;" style="rounded=1;whiteSpace=wrap;html=1;" vertex="1" parent="1">
          <mxGeometry x="-80" y="377.5" width="220" height="75" as="geometry" />
        </mxCell>
        <mxCell id="s0tid6UAbcxy9Dh6yLII-26" style="edgeStyle=orthogonalEdgeStyle;rounded=0;orthogonalLoop=1;jettySize=auto;html=1;exitX=0.5;exitY=1;exitDx=0;exitDy=0;entryX=0.5;entryY=1;entryDx=0;entryDy=0;curved=1;endArrow=none;endFill=0;" edge="1" parent="1" source="s0tid6UAbcxy9Dh6yLII-16" target="s0tid6UAbcxy9Dh6yLII-25">
          <mxGeometry relative="1" as="geometry" />
        </mxCell>
        <mxCell id="s0tid6UAbcxy9Dh6yLII-16" value="&lt;font style=&quot;font-size: 22px;&quot;&gt;&lt;b style=&quot;&quot;&gt;AddNewUserDB&lt;/b&gt;&lt;/font&gt;&lt;div&gt;&lt;span style=&quot;font-size: 18px;&quot;&gt;database_add_user()&lt;/span&gt;&lt;/div&gt;" style="rounded=1;whiteSpace=wrap;html=1;" vertex="1" parent="1">
          <mxGeometry x="-80" y="602.5" width="220" height="75" as="geometry" />
        </mxCell>
        <mxCell id="s0tid6UAbcxy9Dh6yLII-22" style="edgeStyle=orthogonalEdgeStyle;rounded=0;orthogonalLoop=1;jettySize=auto;html=1;exitX=0.5;exitY=1;exitDx=0;exitDy=0;entryX=0.25;entryY=0;entryDx=0;entryDy=0;endArrow=none;endFill=0;" edge="1" parent="1" source="s0tid6UAbcxy9Dh6yLII-19" target="s0tid6UAbcxy9Dh6yLII-20">
          <mxGeometry relative="1" as="geometry" />
        </mxCell>
        <mxCell id="s0tid6UAbcxy9Dh6yLII-19" value="&lt;font style=&quot;font-size: 22px;&quot;&gt;&lt;b style=&quot;&quot;&gt;ShowMapService&lt;/b&gt;&lt;/font&gt;&lt;div&gt;&lt;span style=&quot;font-size: 18px;&quot;&gt;show_map()&lt;/span&gt;&lt;/div&gt;" style="rounded=1;whiteSpace=wrap;html=1;" vertex="1" parent="1">
          <mxGeometry x="490" y="377.5" width="220" height="75" as="geometry" />
        </mxCell>
        <mxCell id="s0tid6UAbcxy9Dh6yLII-42" style="edgeStyle=orthogonalEdgeStyle;rounded=0;orthogonalLoop=1;jettySize=auto;html=1;exitX=0.5;exitY=1;exitDx=0;exitDy=0;entryX=0.5;entryY=1;entryDx=0;entryDy=0;curved=1;endArrow=none;endFill=0;" edge="1" parent="1" source="s0tid6UAbcxy9Dh6yLII-20" target="s0tid6UAbcxy9Dh6yLII-39">
          <mxGeometry relative="1" as="geometry" />
        </mxCell>
        <mxCell id="s0tid6UAbcxy9Dh6yLII-20" value="&lt;font style=&quot;font-size: 22px;&quot;&gt;&lt;b style=&quot;&quot;&gt;GetGeoDataDB&lt;/b&gt;&lt;/font&gt;&lt;div&gt;&lt;span style=&quot;font-size: 18px;&quot;&gt;get_geo_data()&lt;/span&gt;&lt;/div&gt;" style="rounded=1;whiteSpace=wrap;html=1;" vertex="1" parent="1">
          <mxGeometry x="490" y="602.5" width="220" height="75" as="geometry" />
        </mxCell>
        <mxCell id="s0tid6UAbcxy9Dh6yLII-28" style="edgeStyle=orthogonalEdgeStyle;rounded=0;orthogonalLoop=1;jettySize=auto;html=1;exitX=0.5;exitY=1;exitDx=0;exitDy=0;endArrow=none;endFill=0;" edge="1" parent="1" source="s0tid6UAbcxy9Dh6yLII-23" target="s0tid6UAbcxy9Dh6yLII-24">
          <mxGeometry relative="1" as="geometry" />
        </mxCell>
        <mxCell id="s0tid6UAbcxy9Dh6yLII-23" value="&lt;font style=&quot;font-size: 22px;&quot;&gt;&lt;b style=&quot;&quot;&gt;UserLoginEvent&lt;/b&gt;&lt;/font&gt;&lt;div&gt;&lt;font style=&quot;font-size: 18px;&quot;&gt;username: str&lt;/font&gt;&lt;/div&gt;&lt;div&gt;&lt;font style=&quot;font-size: 18px;&quot;&gt;password: str&lt;/font&gt;&lt;/div&gt;" style="rounded=1;whiteSpace=wrap;html=1;" vertex="1" parent="1">
          <mxGeometry x="200" y="127.5" width="220" height="75" as="geometry" />
        </mxCell>
        <mxCell id="s0tid6UAbcxy9Dh6yLII-27" style="edgeStyle=orthogonalEdgeStyle;rounded=0;orthogonalLoop=1;jettySize=auto;html=1;exitX=0.5;exitY=1;exitDx=0;exitDy=0;entryX=0.5;entryY=0;entryDx=0;entryDy=0;endArrow=none;endFill=0;" edge="1" parent="1" source="s0tid6UAbcxy9Dh6yLII-24" target="s0tid6UAbcxy9Dh6yLII-25">
          <mxGeometry relative="1" as="geometry" />
        </mxCell>
        <mxCell id="s0tid6UAbcxy9Dh6yLII-24" value="&lt;font style=&quot;font-size: 22px;&quot;&gt;&lt;b style=&quot;&quot;&gt;VerifyUserService&lt;/b&gt;&lt;/font&gt;&lt;div&gt;&lt;span style=&quot;font-size: 18px;&quot;&gt;verify_user()&lt;/span&gt;&lt;/div&gt;" style="rounded=1;whiteSpace=wrap;html=1;" vertex="1" parent="1">
          <mxGeometry x="200" y="377.5" width="220" height="75" as="geometry" />
        </mxCell>
        <mxCell id="s0tid6UAbcxy9Dh6yLII-25" value="&lt;font style=&quot;font-size: 22px;&quot;&gt;&lt;b style=&quot;&quot;&gt;VerifyUserDB&lt;/b&gt;&lt;/font&gt;&lt;div&gt;&lt;span style=&quot;font-size: 18px;&quot;&gt;database_get_user()&lt;/span&gt;&lt;/div&gt;" style="rounded=1;whiteSpace=wrap;html=1;" vertex="1" parent="1">
          <mxGeometry x="200" y="602.5" width="220" height="75" as="geometry" />
        </mxCell>
        <mxCell id="s0tid6UAbcxy9Dh6yLII-33" style="edgeStyle=orthogonalEdgeStyle;rounded=0;orthogonalLoop=1;jettySize=auto;html=1;exitX=0.5;exitY=1;exitDx=0;exitDy=0;entryX=0.5;entryY=0;entryDx=0;entryDy=0;endArrow=none;endFill=0;" edge="1" parent="1" source="s0tid6UAbcxy9Dh6yLII-29" target="s0tid6UAbcxy9Dh6yLII-30">
          <mxGeometry relative="1" as="geometry" />
        </mxCell>
        <mxCell id="s0tid6UAbcxy9Dh6yLII-29" value="&lt;font style=&quot;font-size: 22px;&quot;&gt;&lt;b style=&quot;&quot;&gt;StationSearchEvent&lt;/b&gt;&lt;/font&gt;&lt;div&gt;&lt;font style=&quot;font-size: 18px;&quot;&gt;postal_code: str&lt;/font&gt;&lt;/div&gt;" style="rounded=1;whiteSpace=wrap;html=1;" vertex="1" parent="1">
          <mxGeometry x="790" y="127.5" width="220" height="75" as="geometry" />
        </mxCell>
        <mxCell id="s0tid6UAbcxy9Dh6yLII-35" style="edgeStyle=orthogonalEdgeStyle;rounded=0;orthogonalLoop=1;jettySize=auto;html=1;exitX=0.5;exitY=1;exitDx=0;exitDy=0;entryX=0.75;entryY=0;entryDx=0;entryDy=0;endArrow=none;endFill=0;" edge="1" parent="1" source="s0tid6UAbcxy9Dh6yLII-30" target="s0tid6UAbcxy9Dh6yLII-20">
          <mxGeometry relative="1" as="geometry" />
        </mxCell>
        <mxCell id="s0tid6UAbcxy9Dh6yLII-30" value="&lt;font style=&quot;font-size: 22px;&quot;&gt;&lt;b style=&quot;&quot;&gt;FindStationsService&lt;/b&gt;&lt;/font&gt;&lt;div&gt;&lt;span style=&quot;font-size: 18px;&quot;&gt;find_charging_stations()&lt;/span&gt;&lt;/div&gt;" style="rounded=1;whiteSpace=wrap;html=1;" vertex="1" parent="1">
          <mxGeometry x="790" y="377.5" width="220" height="75" as="geometry" />
        </mxCell>
        <mxCell id="s0tid6UAbcxy9Dh6yLII-40" style="edgeStyle=orthogonalEdgeStyle;rounded=0;orthogonalLoop=1;jettySize=auto;html=1;exitX=0.5;exitY=1;exitDx=0;exitDy=0;entryX=0.5;entryY=0;entryDx=0;entryDy=0;endArrow=none;endFill=0;" edge="1" parent="1" source="s0tid6UAbcxy9Dh6yLII-37" target="s0tid6UAbcxy9Dh6yLII-38">
          <mxGeometry relative="1" as="geometry" />
        </mxCell>
        <mxCell id="s0tid6UAbcxy9Dh6yLII-37" value="&lt;font style=&quot;font-size: 22px;&quot;&gt;&lt;b style=&quot;&quot;&gt;ReportMalfunctionEvent&lt;/b&gt;&lt;/font&gt;&lt;div&gt;&lt;font style=&quot;font-size: 18px;&quot;&gt;station_code: str&lt;/font&gt;&lt;/div&gt;" style="rounded=1;whiteSpace=wrap;html=1;" vertex="1" parent="1">
          <mxGeometry x="1090" y="127.5" width="320" height="75" as="geometry" />
        </mxCell>
        <mxCell id="s0tid6UAbcxy9Dh6yLII-41" style="edgeStyle=orthogonalEdgeStyle;rounded=0;orthogonalLoop=1;jettySize=auto;html=1;exitX=0.5;exitY=1;exitDx=0;exitDy=0;entryX=0.5;entryY=0;entryDx=0;entryDy=0;endArrow=none;endFill=0;" edge="1" parent="1" source="s0tid6UAbcxy9Dh6yLII-38" target="s0tid6UAbcxy9Dh6yLII-39">
          <mxGeometry relative="1" as="geometry" />
        </mxCell>
        <mxCell id="s0tid6UAbcxy9Dh6yLII-38" value="&lt;font style=&quot;font-size: 22px;&quot;&gt;&lt;b style=&quot;&quot;&gt;SetMalfunctionService&lt;/b&gt;&lt;/font&gt;&lt;div&gt;&lt;span style=&quot;font-size: 18px;&quot;&gt;set_station_malfunctional()&lt;/span&gt;&lt;/div&gt;" style="rounded=1;whiteSpace=wrap;html=1;" vertex="1" parent="1">
          <mxGeometry x="1130" y="377.5" width="240" height="75" as="geometry" />
        </mxCell>
        <mxCell id="s0tid6UAbcxy9Dh6yLII-39" value="&lt;font style=&quot;font-size: 22px;&quot;&gt;&lt;b style=&quot;&quot;&gt;SetMalfunctionDB&lt;/b&gt;&lt;/font&gt;&lt;div&gt;&lt;span style=&quot;font-size: 18px;&quot;&gt;database_set_station_malfunctional()&lt;/span&gt;&lt;/div&gt;" style="rounded=1;whiteSpace=wrap;html=1;" vertex="1" parent="1">
          <mxGeometry x="1085" y="602.5" width="330" height="75" as="geometry" />
        </mxCell>
      </root>
    </mxGraphModel>
  </diagram>
</mxfile>
